[Header]
FileType HTR
DataType HTRS
FileVersion 1
NumSegments 64
NumFrames 4
DataFrameRate 24
EulerRotationOrder ZYX
CalibrationUnits mm
RotationUnits Degrees
GlobalAxisofGravity Y
BoneLengthAxis Y
ScaleFactor 1.0
[SegmentNames&Hierarchy]
Hips	GLOBAL
Spine	Hips
Spine1	Spine
Spine2	Spine1
Neck	Spine2
Head	Neck
LeftEye	Head
RightEye	Head
LeftShoulder	Spine2
LeftArm	LeftShoulder
LeftForeArm	LeftArm
LeftHand	LeftForeArm
LeftHandThumb1	LeftHand
LeftHandThumb2	LeftHandThumb1
LeftHandThumb3	LeftHandThumb2
LeftHandThumb4	LeftHandThumb3
LeftHandIndex1	LeftHand
LeftHandIndex2	LeftHandIndex1
LeftHandIndex3	LeftHandIndex2
LeftHandIndex4	LeftHandIndex3
LeftHandMiddle1	LeftHand
LeftHandMiddle2	LeftHandMiddle1
LeftHandMiddle3	LeftHandMiddle2
LeftHandMiddle4	LeftHandMiddle3
LeftHandRing1	LeftHand
LeftHandRing2	LeftHandRing1
LeftHandRing3	LeftHandRing2
LeftHandRing4	LeftHandRing3
LeftHandPinky1	LeftHand
LeftHandPinky2	LeftHandPinky1
LeftHandPinky3	LeftHandPinky2
LeftHandPinky4	LeftHandPinky3
RightShoulder	Spine2
RightArm	RightShoulder
RightForeArm	RightArm
RightHand	RightForeArm
RightHandPinky1	RightHand
RightHandPinky2	RightHandPinky1
RightHandPinky3	RightHandPinky2
RightHandPinky4	RightHandPinky3
RightHandRing1	RightHand
RightHandRing2	RightHandRing1
RightHandRing3	RightHandRing2
RightHandRing4	RightHandRing3
RightHandMiddle1	RightHand
RightHandMiddle2	RightHandMiddle1
RightHandMiddle3	RightHandMiddle2
RightHandMiddle4	RightHandMiddle3
RightHandIndex1	RightHand
RightHandIndex2	RightHandIndex1
RightHandIndex3	RightHandIndex2
RightHandIndex4	RightHandIndex3
RightHandThumb1	RightHand
RightHandThumb2	RightHandThumb1
RightHandThumb3	RightHandThumb2
RightHandThumb4	RightHandThumb3
LeftUpLeg	Hips
LeftLeg	LeftUpLeg
LeftFoot	LeftLeg
LeftToeBase	LeftFoot
RightUpLeg	Hips
RightLeg	RightUpLeg
RightFoot	RightLeg
RightToeBase	RightFoot
[BasePosition]
Hips	0	0	0	0	0	0	1
Spine	0	0	0	0	0	0	1
Spine1	0	0	0	0	0	0	1
Spine2	0	0	0	0	0	0	1
Neck	0	0	0	0	0	0	1
Head	0	0	0	0	0	0	1
LeftEye	0	0	0	0	0	0	1
RightEye	0	0	0	0	0	0	1
LeftShoulder	0	0	0	0	0	0	1
LeftArm	0	0	0	0	0	0	1
LeftForeArm	0	0	0	0	0	0	1
LeftHand	0	0	0	0	0	0	1
LeftHandThumb1	0	0	0	0	0	0	1
LeftHandThumb2	0	0	0	0	0	0	1
LeftHandThumb3	0	0	0	0	0	0	1
LeftHandThumb4	0	0	0	0	0	0	1
LeftHandIndex1	0	0	0	0	0	0	1
LeftHandIndex2	0	0	0	0	0	0	1
LeftHandIndex3	0	0	0	0	0	0	1
LeftHandIndex4	0	0	0	0	0	0	1
LeftHandMiddle1	0	0	0	0	0	0	1
LeftHandMiddle2	0	0	0	0	0	0	1
LeftHandMiddle3	0	0	0	0	0	0	1
LeftHandMiddle4	0	0	0	0	0	0	1
LeftHandRing1	0	0	0	0	0	0	1
LeftHandRing2	0	0	0	0	0	0	1
LeftHandRing3	0	0	0	0	0	0	1
LeftHandRing4	0	0	0	0	0	0	1
LeftHandPinky1	0	0	0	0	0	0	1
LeftHandPinky2	0	0	0	0	0	0	1
LeftHandPinky3	0	0	0	0	0	0	1
LeftHandPinky4	0	0	0	0	0	0	1
RightShoulder	0	0	0	0	0	0	1
RightArm	0	0	0	0	0	0	1
RightForeArm	0	0	0	0	0	0	1
RightHand	0	0	0	0	0	0	1
RightHandPinky1	0	0	0	0	0	0	1
RightHandPinky2	0	0	0	0	0	0	1
RightHandPinky3	0	0	0	0	0	0	1
RightHandPinky4	0	0	0	0	0	0	1
RightHandRing1	0	0	0	0	0	0	1
RightHandRing2	0	0	0	0	0	0	1
RightHandRing3	0	0	0	0	0	0	1
RightHandRing4	0	0	0	0	0	0	1
RightHandMiddle1	0	0	0	0	0	0	1
RightHandMiddle2	0	0	0	0	0	0	1
RightHandMiddle3	0	0	0	0	0	0	1
RightHandMiddle4	0	0	0	0	0	0	1
RightHandIndex1	0	0	0	0	0	0	1
RightHandIndex2	0	0	0	0	0	0	1
RightHandIndex3	0	0	0	0	0	0	1
RightHandIndex4	0	0	0	0	0	0	1
RightHandThumb1	0	0	0	0	0	0	1
RightHandThumb2	0	0	0	0	0	0	1
RightHandThumb3	0	0	0	0	0	0	1
RightHandThumb4	0	0	0	0	0	0	1
LeftUpLeg	0	0	0	0	0	0	1
LeftLeg	0	0	0	0	0	0	1
LeftFoot	0	0	0	0	0	0	1
LeftToeBase	0	0	0	0	0	0	1
RightUpLeg	0	0	0	0	0	0	1
RightLeg	0	0	0	0	0	0	1
RightFoot	0	0	0	0	0	0	1
RightToeBase	0	0	0	0	0	0	1
[Hips]
112	117.2389297	904.992981	8.771785736	5.499720097	-11.22339344	2.626445293	1.0
113	89.58290863	930.4312134	19.52682877	5.000485897	-9.436414719	-0.7781136036	1.0
114	52.51504898	968.9143066	32.2455864	4.82972765	-6.331466198	-4.366700649	1.0
115	14.65047836	1005.699097	43.76012421	4.240962029	-1.667120695	-7.620998383	1.0
[Spine]
112	0	101.8159943	1.315000057	10.44164562	-3.435445786	-2.136638403	1.0
113	0	101.8159943	1.315000057	9.413427353	-3.68357563	-0.7314471602	1.0
114	0	101.8159943	1.315000057	7.554769516	-4.199846745	1.059494019	1.0
115	0	101.8159943	1.315000057	6.021982193	-5.392461777	2.596542358	1.0
[Spine1]
112	0	100.8349991	-10.00800037	5.100871563	-0.3897014856	1.183507562	1.0
113	0	100.8349991	-10.00800037	5.252616405	-0.420176357	1.428955674	1.0
114	0	100.8349991	-10.00800037	4.982393265	-0.4868499041	1.651834011	1.0
115	0	100.8349991	-10.00800037	4.322379112	-0.6815502048	1.640434027	1.0
[Spine2]
112	0	91	-13.73399925	5.105861664	-0.2584857345	1.148753166	1.0
113	0	91	-13.73399925	5.260670662	-0.2737034857	1.386844158	1.0
114	0	91	-13.73399925	4.994615555	-0.3478882611	1.602893472	1.0
115	0	91	-13.73399925	4.337572098	-0.5794973969	1.586878419	1.0
[Neck]
112	0	166.7169952	-25.16200066	-6.584471703	2.144707441	-3.008911133	1.0
113	0	166.7169952	-25.16200066	-6.520439625	1.819930911	-2.397295475	1.0
114	0	166.7169952	-25.16200066	-6.297398567	1.394029617	-0.9634971619	1.0
115	0	166.7169952	-25.16200066	-3.898742914	0.6443456411	2.705592632	1.0
[Head]
112	0	96.17900085	16.84999847	-33.22314453	9.574393272	-3.089416027	1.0
113	0	96.17900085	16.84999847	-29.28173637	9.308627129	-1.222894669	1.0
114	0	96.17900085	16.84999847	-22.6690731	8.838929176	0.510889411	1.0
115	0	96.17900085	16.84999847	-16.38056374	7.985307217	0.3398598433	1.0
[LeftEye]
112	30.6760006	64.09500122	92.83599854	0	0	0	1.0
113	30.6760006	64.09500122	92.83599854	0	0	0	1.0
114	30.6760006	64.09500122	92.83599854	0	0	0	1.0
115	30.6760006	64.09500122	92.83599854	0	0	0	1.0
[RightEye]
112	-30.6760006	64.09500122	92.83499908	0	0	0	1.0
113	-30.6760006	64.09500122	92.83499908	0	0	0	1.0
114	-30.6760006	64.09500122	92.83499908	0	0	0	1.0
115	-30.6760006	64.09500122	92.83499908	0	0	0	1.0
[LeftShoulder]
112	45.70400238	109.4599991	-26.28000069	3.984748125	-25.62874222	-5.610981464	1.0
113	45.70400238	109.4599991	-26.28000069	3.886284828	-26.18579483	-5.202223778	1.0
114	45.70400238	109.4599991	-26.28000069	3.627859831	-27.31843758	-4.057646275	1.0
115	45.70400238	109.4599991	-26.28000069	3.408880472	-30.21813965	-3.229496479	1.0
[LeftArm]
112	105.923996	-5.24600029	-22.32099915	-13.67397499	-40.2735672	4.948664665	1.0
113	105.923996	-5.24600029	-22.32099915	-12.43885422	-44.25565338	2.509728909	1.0
114	105.923996	-5.24600029	-22.32099915	-6.143977642	-48.0383873	-3.472842693	1.0
115	105.923996	-5.24600029	-22.32099915	3.451014519	-49.54047775	-10.27476883	1.0
[LeftForeArm]
112	278.414978	-0.0009999999311	0	0	-111.2480621	-0.0001983642578	1.0
113	278.414978	-0.0009999999311	0	-5.709144615e-11	-110.837822	-0.0001983642142	1.0
114	278.414978	-0.0009999999311	0	-3.051757813e-05	-106.3411407	-0.0001831055124	1.0
115	278.414978	-0.0009999999311	0	0	-97.47564697	-0.0001831054688	1.0
[LeftHand]
112	283.2879944	0	0	0.2038091868	-26.29272079	-5.955271244	1.0
113	283.2879944	0	0	5.441597939	-25.15866852	-6.632609844	1.0
114	283.2879944	0	0	8.070650101	-24.98304558	-1.871389985	1.0
115	283.2879944	0	0	6.0008111	-26.37635803	3.506333828	1.0
[LeftHandThumb1]
112	24.6609993	-15.75	26.8239994	-1.441464663	-8.319263458	8.65396595	1.0
113	24.6609993	-15.75	26.8239994	-1.441467047	-8.319279671	8.653968811	1.0
114	24.6609993	-15.75	26.8239994	-1.441468596	-8.319268227	8.653960228	1.0
115	24.6609993	-15.75	26.8239994	-1.441472292	-8.319259644	8.653961182	1.0
[LeftHandThumb2]
112	32.29800034	-18.64699936	18.64699936	-1.002686739	48.03784943	-30.11018562	1.0
113	32.29800034	-18.64699936	18.64699936	-0.9997666478	48.03665161	-30.10417938	1.0
114	32.29800034	-18.64699936	18.64699936	-0.9974674582	48.03567505	-30.0994854	1.0
115	32.29800034	-18.64699936	18.64699936	-0.9984641075	48.03608704	-30.10153961	1.0
[LeftHandThumb3]
112	26.52600098	-15.31499958	15.31499958	7.526370049	50.02843857	24.38991928	1.0
113	26.52600098	-15.31499958	15.31499958	7.523351192	50.02531052	24.3882122	1.0
114	26.52600098	-15.31499958	15.31499958	7.521604538	50.0226326	24.38740158	1.0
115	26.52600098	-15.31499958	15.31499958	7.52212429	50.02389908	24.3875618	1.0
[LeftHandThumb4]
112	19.54599953	-11.28499985	11.28499985	0	0	0	1.0
113	19.54599953	-11.28499985	11.28499985	0	0	0	1.0
114	19.54599953	-11.28499985	11.28499985	0	0	0	1.0
115	19.54599953	-11.28499985	11.28499985	0	0	0	1.0
[LeftHandIndex1]
112	91.09299469	-5.170999527	22.60099792	-1.707834363	9.272706032	-79.13182831	1.0
113	91.09299469	-5.170999527	22.60099792	-1.707180023	9.272322655	-79.12714386	1.0
114	91.09299469	-5.170999527	22.60099792	-1.706668496	9.272027016	-79.12343597	1.0
115	91.09299469	-5.170999527	22.60099792	-1.706900835	9.272162437	-79.12505341	1.0
[LeftHandIndex2]
112	36.76399994	0	0	-5.084247112	5.778055191	-82.67962646	1.0
113	36.76399994	0	0	-5.084242821	5.778053284	-82.67964935	1.0
114	36.76399994	0	0	-5.084242821	5.778052807	-82.67964172	1.0
115	36.76399994	0	0	-5.084239483	5.778051853	-82.67962646	1.0
[LeftHandIndex3]
112	28.83100128	0	0	-6.449678898	5.791753769	-96.16446686	1.0
113	28.83100128	0	0	-6.449678898	5.791763783	-96.164505	1.0
114	28.83100128	0	0	-6.44968605	5.791770458	-96.16449738	1.0
115	28.83100128	0	0	-6.449682236	5.79175663	-96.164505	1.0
[LeftHandIndex4]
112	23.92700005	0	0	0	0	0	1.0
113	23.92700005	0	0	0	0	0	1.0
114	23.92700005	0	0	0	0	0	1.0
115	23.92700005	0	0	0	0	0	1.0
[LeftHandMiddle1]
112	95.33399963	0	0	-6.494753838	5.273258686	-74.30394745	1.0
113	95.33399963	0	0	-6.494763851	5.273263931	-74.30395508	1.0
114	95.33399963	0	0	-6.494762421	5.273256302	-74.30393982	1.0
115	95.33399963	0	0	-6.494763851	5.273269653	-74.30393982	1.0
[LeftHandMiddle2]
112	36.98199844	0	0	-7.583502293	5.554389954	-107.596611	1.0
113	36.98199844	0	0	-7.583495617	5.554395676	-107.5965881	1.0
114	36.98199844	0	0	-7.583498478	5.554380417	-107.5965958	1.0
115	36.98199844	0	0	-7.583495617	5.554391384	-107.5966034	1.0
[LeftHandMiddle3]
112	29.50900078	0	0	-4.044739246	5.547333717	-72.17405701	1.0
113	29.50900078	0	0	-4.044266224	5.547187328	-72.16913605	1.0
114	29.50900078	0	0	-4.043897152	5.547063351	-72.16529846	1.0
115	29.50900078	0	0	-4.04406023	5.547111034	-72.16695404	1.0
[LeftHandMiddle4]
112	28.3390007	0	0	0	0	0	1.0
113	28.3390007	0	0	0	0	0	1.0
114	28.3390007	0	0	0	0	0	1.0
115	28.3390007	0	0	0	0	0	1.0
[LeftHandRing1]
112	91.04499817	-0.4390000105	-18.65100098	-7.093266964	2.508049011	-79.76359558	1.0
113	91.04499817	-0.4390000105	-18.65100098	-7.093500137	2.507982016	-79.76580811	1.0
114	91.04499817	-0.4390000105	-18.65100098	-7.093682289	2.507927895	-79.76753235	1.0
115	91.04499817	-0.4390000105	-18.65100098	-7.093603134	2.50795126	-79.76677704	1.0
[LeftHandRing2]
112	31.54000092	0	0	-6.249342918	5.809801579	-94.1825943	1.0
113	31.54000092	0	0	-6.249210358	5.809813499	-94.18121338	1.0
114	31.54000092	0	0	-6.249105453	5.809827805	-94.18014526	1.0
115	31.54000092	0	0	-6.249153137	5.809819221	-94.18063354	1.0
[LeftHandRing3]
112	29.37700081	0	0	-2.899011374	5.039094448	-59.80250931	1.0
113	29.37700081	0	0	-2.898731709	5.038938046	-59.79932785	1.0
114	29.37700081	0	0	-2.898506403	5.038815498	-59.79682541	1.0
115	29.37700081	0	0	-2.898604631	5.038862705	-59.79790878	1.0
[LeftHandRing4]
112	26.47500038	0	0	0	0	0	1.0
113	26.47500038	0	0	0	0	0	1.0
114	26.47500038	0	0	0	0	0	1.0
115	26.47500038	0	0	0	0	0	1.0
[LeftHandPinky1]
112	80.77799988	-4.887000084	-38.06099701	-15.74257469	5.236867428	-84.95985413	1.0
113	80.77799988	-4.887000084	-38.06099701	-15.74275208	5.236485004	-84.96215057	1.0
114	80.77799988	-4.887000084	-38.06099701	-15.74287605	5.236174583	-84.96395111	1.0
115	80.77799988	-4.887000084	-38.06099701	-15.74282455	5.236304283	-84.96317291	1.0
[LeftHandPinky2]
112	36	0	0	-2.465592623	4.761515141	-54.73199081	1.0
113	36	0	0	-2.465538502	4.761485577	-54.73138428	1.0
114	36	0	0	-2.46551466	4.761458397	-54.7309761	1.0
115	36	0	0	-2.465527773	4.761468887	-54.73115921	1.0
[LeftHandPinky3]
112	21.14200211	0	0	-4.930317879	5.756299019	-81.14801025	1.0
113	21.14200211	0	0	-4.929845333	5.756215096	-81.14321899	1.0
114	21.14200211	0	0	-4.929467678	5.756168365	-81.13945007	1.0
115	21.14200211	0	0	-4.929626465	5.756186008	-81.14112091	1.0
[LeftHandPinky4]
112	19.75699997	0	0	0	0	0	1.0
113	19.75699997	0	0	0	0	0	1.0
114	19.75699997	0	0	0	0	0	1.0
115	19.75699997	0	0	0	0	0	1.0
[RightShoulder]
112	-45.70000076	109.4620056	-26.28000069	-30.38603592	10.7817688	-23.1982975	1.0
113	-45.70000076	109.4620056	-26.28000069	-28.05826569	10.53205967	-20.34173203	1.0
114	-45.70000076	109.4620056	-26.28000069	-24.49273872	9.082961082	-16.68908691	1.0
115	-45.70000076	109.4620056	-26.28000069	-19.0591507	6.735570908	-12.380373	1.0
[RightArm]
112	-105.9280014	-5.248000145	-22.32099915	-83.40699768	-4.673508167	-5.136907101	1.0
113	-105.9280014	-5.248000145	-22.32099915	-88.47045135	-3.651508093	-4.316606045	1.0
114	-105.9280014	-5.248000145	-22.32099915	-77.88910675	-0.1660871059	-4.635434628	1.0
115	-105.9280014	-5.248000145	-22.32099915	-52.72405243	3.001893759	-10.86045551	1.0
[RightForeArm]
112	-278.414978	0	0	1.525878906e-05	117.6366272	1.525878906e-05	1.0
113	-278.414978	0	0	3.05174799e-05	105.8457108	4.577626896e-05	1.0
114	-278.414978	0	0	-3.821298014e-05	85.59241486	-3.672003004e-05	1.0
115	-278.414978	0	0	-7.910981367e-06	55.20396805	-1.23892487e-05	1.0
[RightHand]
112	-283.2879944	0	0.0009999999311	-30.59729958	-3.329076052	-43.16898346	1.0
113	-283.2879944	0	0.0009999999311	-26.9668808	-0.8786632419	-60.47801208	1.0
114	-283.2879944	0	0.0009999999311	-32.59967422	-3.015279055	-64.10712433	1.0
115	-283.2879944	0	0.0009999999311	-52.66879272	-18.42429161	-58.3441925	1.0
[RightHandPinky1]
112	-80.76699829	-4.885000229	-38.06000137	-15.1822443	-1.629496694	97.5863266	1.0
113	-80.76699829	-4.885000229	-38.06000137	-15.18224812	-1.629517794	97.5863266	1.0
114	-80.76699829	-4.885000229	-38.06000137	-15.18224144	-1.629505992	97.58633423	1.0
115	-80.76699829	-4.885000229	-38.06000137	-15.18223286	-1.629510641	97.58631134	1.0
[RightHandPinky2]
112	-36	0	0.0009999999311	-1.749822378	-3.626888752	51.51878357	1.0
113	-36	0	0.0009999999311	-1.749816298	-3.626904011	51.51877975	1.0
114	-36	0	0.0009999999311	-1.749818683	-3.626902342	51.51877975	1.0
115	-36	0	0.0009999999311	-1.749815106	-3.62687993	51.51877594	1.0
[RightHandPinky3]
112	-21.14200211	0	0	-1.867236853	-3.717077732	53.33225632	1.0
113	-21.14200211	0	0	-1.867219448	-3.717077494	53.33224869	1.0
114	-21.14200211	0	0	-1.867232442	-3.717077255	53.33224869	1.0
115	-21.14200211	0	0	-1.867237091	-3.717079878	53.33223724	1.0
[RightHandPinky4]
112	-19.75699997	0	0	0	0	0	1.0
113	-19.75699997	0	0	0	0	0	1.0
114	-19.75699997	0	0	0	0	0	1.0
115	-19.75699997	0	0	0	0	0	1.0
[RightHandRing1]
112	-91.03599548	-0.4390000105	-18.65100098	-7.065044403	-0.7974017859	91.91007996	1.0
113	-91.03599548	-0.4390000105	-18.65100098	-7.065047264	-0.7974227667	91.91007233	1.0
114	-91.03599548	-0.4390000105	-18.65100098	-7.065029621	-0.7974179387	91.91007233	1.0
115	-91.03599548	-0.4390000105	-18.65100098	-7.065027714	-0.797408402	91.91007996	1.0
[RightHandRing2]
112	-31.54000092	0	0	-4.32775116	-4.620640755	86.24688721	1.0
113	-31.54000092	0	0	-4.327741146	-4.620634556	86.24688721	1.0
114	-31.54000092	0	0	-4.327740192	-4.620632648	86.24688721	1.0
115	-31.54000092	0	0	-4.327748299	-4.620634556	86.24686432	1.0
[RightHandRing3]
112	-29.37700081	0	0	-1.156965852	-3.06393075	41.36632919	1.0
113	-29.37700081	0	0	-1.156962395	-3.063936949	41.36634064	1.0
114	-29.37700081	0	0	-1.156972647	-3.063946962	41.36634445	1.0
115	-29.37700081	0	0	-1.156977534	-3.063926697	41.36633682	1.0
[RightHandRing4]
112	-26.47500038	0	0	0	0	0	1.0
113	-26.47500038	0	0	0	0	0	1.0
114	-26.47500038	0	0	0	0	0	1.0
115	-26.47500038	0	0	0	0	0	1.0
[RightHandMiddle1]
112	-95.32500458	0	0	-5.490195751	-4.098493099	73.57289124	1.0
113	-95.32500458	0	0	-5.490188599	-4.098519802	73.57287598	1.0
114	-95.32500458	0	0	-5.490178108	-4.098508358	73.57289124	1.0
115	-95.32500458	0	0	-5.490185261	-4.098502636	73.57289124	1.0
[RightHandMiddle2]
112	-36.98199844	0	0	-6.02657938	-4.415502071	107.5651245	1.0
113	-36.98199844	0	0	-6.026578426	-4.415495872	107.5651245	1.0
114	-36.98199844	0	0	-6.026585579	-4.415520668	107.5651093	1.0
115	-36.98199844	0	0	-6.026574612	-4.415505886	107.5651093	1.0
[RightHandMiddle3]
112	-29.50900078	0	0	-1.287470698	-3.207856655	43.75225067	1.0
113	-29.50900078	0	0	-1.287468553	-3.207862616	43.75226212	1.0
114	-29.50900078	0	0	-1.287470937	-3.207847357	43.75225067	1.0
115	-29.50900078	0	0	-1.287476778	-3.207854986	43.7522583	1.0
[RightHandMiddle4]
112	-28.3390007	0	0.0009999999311	0	0	0	1.0
113	-28.3390007	0	0.0009999999311	0	0	0	1.0
114	-28.3390007	0	0.0009999999311	0	0	0	1.0
115	-28.3390007	0	0.0009999999311	0	0	0	1.0
[RightHandIndex1]
112	-91.08300018	-5.167999744	22.60099792	2.643052578	-5.360729218	51.18568802	1.0
113	-91.08300018	-5.167999744	22.60099792	2.643061876	-5.360746384	51.18567657	1.0
114	-91.08300018	-5.167999744	22.60099792	2.643076658	-5.360729218	51.18568039	1.0
115	-91.08300018	-5.167999744	22.60099792	2.643070936	-5.360725403	51.1856842	1.0
[RightHandIndex2]
112	-36.76399994	0	0	-4.042245865	-4.593095303	82.69343567	1.0
113	-36.76399994	0	0	-4.042245388	-4.593091488	82.69343567	1.0
114	-36.76399994	0	0	-4.042260647	-4.593093872	82.6934433	1.0
115	-36.76399994	0	0	-4.042228222	-4.593095303	82.69341278	1.0
[RightHandIndex3]
112	-28.83100128	0	0	-5.126289368	-4.603962898	96.15283203	1.0
113	-28.83100128	0	0	-5.126290321	-4.603969574	96.1528244	1.0
114	-28.83100128	0	0	-5.126280308	-4.603984356	96.15283203	1.0
115	-28.83100128	0	0	-5.126292229	-4.60397768	96.15283966	1.0
[RightHandIndex4]
112	-23.92700005	0	0	0	0	0	1.0
113	-23.92700005	0	0	0	0	0	1.0
114	-23.92700005	0	0	0	0	0	1.0
115	-23.92700005	0	0	0	0	0	1.0
[RightHandThumb1]
112	-24.64799881	-15.72700024	26.82600021	-2.388247013	10.16858768	-8.287036896	1.0
113	-24.64799881	-15.72700024	26.82600021	-2.388231993	10.16859627	-8.287032127	1.0
114	-24.64799881	-15.72700024	26.82600021	-2.388240814	10.16858864	-8.287024498	1.0
115	-24.64799881	-15.72700024	26.82600021	-2.388243675	10.16859436	-8.287032127	1.0
[RightHandThumb2]
112	-32.29800034	-18.64699936	18.64699936	7.070493698	-37.46693802	0.6014053822	1.0
113	-32.29800034	-18.64699936	18.64699936	7.070501804	-37.46695709	0.6013701558	1.0
114	-32.29800034	-18.64699936	18.64699936	7.070501804	-37.46694565	0.6013809443	1.0
115	-32.29800034	-18.64699936	18.64699936	7.070495605	-37.46694946	0.6013967991	1.0
[RightHandThumb3]
112	-26.52600098	-15.31399918	15.31399918	3.291618586	-34.41185379	-26.10049629	1.0
113	-26.52600098	-15.31399918	15.31399918	3.291623354	-34.4118576	-26.10049248	1.0
114	-26.52600098	-15.31399918	15.31399918	3.291633129	-34.41185379	-26.10049629	1.0
115	-26.52600098	-15.31399918	15.31399918	3.291624069	-34.4118576	-26.10050201	1.0
[RightHandThumb4]
112	-19.54599953	-11.28499985	11.28499985	0	0	0	1.0
113	-19.54599953	-11.28499985	11.28499985	0	0	0	1.0
114	-19.54599953	-11.28499985	11.28499985	0	0	0	1.0
115	-19.54599953	-11.28499985	11.28499985	0	0	0	1.0
[LeftUpLeg]
112	82.07800293	-67.51699829	-15.99599934	-16.60154724	13.28014374	17.72616196	1.0
113	82.07800293	-67.51699829	-15.99599934	-12.20160866	14.75584793	23.01461601	1.0
114	82.07800293	-67.51699829	-15.99599934	-7.949370861	15.55229759	27.91267204	1.0
115	82.07800293	-67.51699829	-15.99599934	-12.59377003	15.11209011	28.09146118	1.0
[LeftLeg]
112	0	-443.7049866	2.845999956	43.73690033	6.839785099	6.517622948	1.0
113	0	-443.7049866	2.845999956	36.4730072	6.899258137	5.044251442	1.0
114	0	-443.7049866	2.845999956	24.94151878	8.814358711	4.362751007	1.0
115	0	-443.7049866	2.845999956	27.20424271	8.551708221	4.935137272	1.0
[LeftFoot]
112	0	-444.2789917	-29.8219986	-22.30271912	-3.393033504	-22.5045433	1.0
113	0	-444.2789917	-29.8219986	-15.77802277	-1.22843051	-18.81993294	1.0
114	0	-444.2789917	-29.8219986	-1.259429932	5.115303993	-11.82414246	1.0
115	0	-444.2789917	-29.8219986	12.55251026	7.647693634	-5.152858257	1.0
[LeftToeBase]
112	0	-87.28699493	107.1060028	-0.1571938097	2.856899755e-06	2.272926167e-06	1.0
113	0	-87.28699493	107.1060028	-5.395112991	4.340527539e-06	1.557956011e-06	1.0
114	0	-87.28699493	107.1060028	-11.87192059	-5.770223765e-07	-4.907044968e-06	1.0
115	0	-87.28699493	107.1060028	-15.04113293	-1.171290755	-5.744184971	1.0
[RightUpLeg]
112	-82.07800293	-67.51699829	-15.99599934	-63.09210968	-5.929605961	-14.10369587	1.0
113	-82.07800293	-67.51699829	-15.99599934	-64.53501129	-12.66654015	-9.250183105	1.0
114	-82.07800293	-67.51699829	-15.99599934	-61.22916412	-17.79006958	-6.640947819	1.0
115	-82.07800293	-67.51699829	-15.99599934	-52.14997482	-18.59862709	-6.151525497	1.0
[RightLeg]
112	0	-443.7049866	2.861999989	91.30856323	0.9968568683	-9.61439991	1.0
113	0	-443.7049866	2.861999989	98.05292511	2.556045055	-9.010230064	1.0
114	0	-443.7049866	2.861999989	97.85733795	2.567225218	-7.163866997	1.0
115	0	-443.7049866	2.861999989	87.09257507	1.241804123	-8.246626854	1.0
[RightFoot]
112	0	-444.2770081	-29.83799934	-3.591003656	-6.118299961	9.013689041	1.0
113	0	-444.2770081	-29.83799934	-7.699114799	-13.87808037	4.807289124	1.0
114	0	-444.2770081	-29.83799934	-8.278692245	-19.00008583	1.756473303	1.0
115	0	-444.2770081	-29.83799934	-6.5223279	-20.97300529	2.301962376	1.0
[RightToeBase]
112	0	-87.28699493	107.1060028	1.469132304	-9.620357559e-06	-4.610041344e-07	1.0
113	0	-87.28699493	107.1060028	1.369049788	9.305608728e-06	4.269396868e-06	1.0
114	0	-87.28699493	107.1060028	1.096733451	1.398707172e-05	7.19090167e-07	1.0
115	0	-87.28699493	107.1060028	2.290920973	5.924509423e-06	2.727420906e-06	1.0
[EndOfFile]
